<svg width="16" height="17" viewBox="0 0 16 17" fill="none" xmlns="http://www.w3.org/2000/svg">
<path d="M3.33337 8H2.83337V9H3.33337V8ZM13.0203 8.85355C13.2155 8.65829 13.2155 8.34171 13.0203 8.14645L9.83828 4.96447C9.64302 4.7692 9.32644 4.7692 9.13117 4.96447C8.93591 5.15973 8.93591 5.47631 9.13117 5.67157L11.9596 8.5L9.13117 11.3284C8.93591 11.5237 8.93591 11.8403 9.13117 12.0355C9.32644 12.2308 9.64302 12.2308 9.83828 12.0355L13.0203 8.85355ZM3.33337 9H12.6667V8H3.33337V9Z" fill="#FAFAFA"/>
<path d="M8 3.83337L12.6667 8.50004L8 13.1667" stroke="#FAFAFA" stroke-linecap="square" stroke-linejoin="round"/>
</svg>
