<svg width="49" height="34" viewBox="0 0 49 34" fill="none" xmlns="http://www.w3.org/2000/svg">
<g clip-path="url(#clip0_15_37)">
<path d="M45.6868 5.84C45.4499 4.89082 44.9674 4.02114 44.288 3.31881C43.6086 2.61648 42.7565 2.10637 41.8176 1.84C38.3871 1 24.6652 1 24.6652 1C24.6652 1 10.9433 1 7.51285 1.92C6.57396 2.18637 5.72178 2.69648 5.04241 3.39881C4.36304 4.10114 3.88052 4.97082 3.6436 5.92C3.01577 9.41111 2.70867 12.9526 2.72615 16.5C2.70377 20.0741 3.01089 23.6426 3.6436 27.16C3.90479 28.0797 4.39812 28.9163 5.07591 29.589C5.7537 30.2616 6.59305 30.7476 7.51285 31C10.9433 31.92 24.6652 31.92 24.6652 31.92C24.6652 31.92 38.3871 31.92 41.8176 31C42.7565 30.7336 43.6086 30.2235 44.288 29.5212C44.9674 28.8189 45.4499 27.9492 45.6868 27C46.3098 23.5352 46.6169 20.0207 46.6043 16.5C46.6267 12.9259 46.3195 9.3574 45.6868 5.84V5.84Z" stroke="white" stroke-width="3" stroke-linecap="round" stroke-linejoin="round"/>
<path d="M20.1777 23.04L31.6458 16.5L20.1777 9.95996V23.04Z" stroke="white" stroke-width="3" stroke-linecap="round" stroke-linejoin="round"/>
</g>
<defs>
<clipPath id="clip0_15_37">
<rect width="48" height="34" fill="white" transform="translate(0.0855408)"/>
</clipPath>
</defs>
</svg>
